<?xml version="1.0" encoding="utf-8"?>
<!-- Generator: Adobe Illustrator 25.0.1, SVG Export Plug-In . SVG Version: 6.00 Build 0)  -->
<svg version="1.1" id="Capa_1" xmlns="http://www.w3.org/2000/svg" xmlns:xlink="http://www.w3.org/1999/xlink" x="0px" y="0px"
	 viewBox="0 0 150 150" style="enable-background:new 0 0 150 150;" xml:space="preserve">
<style type="text/css">
	.st0{fill:none;}
	.st1{fill:#B38E5D;}
	.st2{fill:#9E234A;}
</style>
<g>
	<g>
		<path class="st0" d="M21.8,138.1c0,1.9,1.6,3.4,3.4,3.4h99.5c1.9,0,3.4-1.5,3.4-3.4v-3.4H21.8V138.1z"/>
		<polygon class="st0" points="120.2,119 29.8,119 23,131.3 127,131.3 		"/>
		<path class="st0" d="M108.9,109H41.1c-1,0-1.7-0.8-1.7-1.8V37.3h-5c-2.1,0-3.8,1.7-3.8,3.9v74.4h89V41.2c0-2.1-1.7-3.9-3.8-3.9h-5
			v69.9C110.7,108.2,109.9,109,108.9,109z"/>
		<path class="st1" d="M131.5,132.4c0-0.1-0.1-0.1-0.1-0.1c0-0.1,0-0.1,0-0.1l-8.5-15.3V41.2c0-4-3.3-7.3-7.3-7.3h-5v3.4h5
			c2.1,0,3.8,1.7,3.8,3.9v74.4h-89V41.2c0-2.1,1.7-3.9,3.8-3.9h5v-3.4h-5c-4,0-7.3,3.3-7.3,7.3v75.6l-8.5,15.3c0,0,0,0-0.1,0.1
			c0,0,0,0.1-0.1,0.1c-0.1,0.2-0.1,0.4-0.1,0.6v0.1v5.1c0,3.8,3.1,6.9,6.8,6.9h99.5c3.8,0,6.9-3.1,6.9-6.9V133v-0.1
			C131.6,132.8,131.6,132.6,131.5,132.4z M29.8,119h90.4l6.8,12.3H23L29.8,119z M128.2,138.1c0,1.9-1.5,3.4-3.4,3.4H25.2
			c-1.9,0-3.4-1.5-3.4-3.4v-3.4h106.4V138.1z"/>
		<path class="st2" d="M110.5,25c0-0.1,0-0.1,0-0.2c-0.1-0.2-0.2-0.4-0.3-0.5L91.4,5.5c-0.2-0.2-0.3-0.2-0.5-0.3
			c-0.1-0.1-0.1-0.1-0.2-0.1c-0.1,0-0.3-0.1-0.4-0.1c-0.1,0-0.1-0.1-0.1-0.1H41.1c-1,0-1.7,0.8-1.7,1.8v27.1v3.4v69.9
			c0,1,0.8,1.8,1.7,1.8h67.8c1,0,1.7-0.8,1.7-1.8V37.3v-3.4v-8.4c0,0,0,0,0-0.1C110.6,25.2,110.6,25.1,110.5,25z M91.9,11l6.3,6.4
			l6.4,6.4H91.9V11z M107.2,37.3v68.1H42.8V37.3v-3.4V8.6h45.6v16.9c0,1,0.8,1.8,1.8,1.8h17v6.7V37.3z"/>
	</g>
	<g>
		<g>
			<path class="st2" d="M49,32.9h33.2c0.8,0,1.5-0.6,1.5-1.5c0-0.8-0.6-1.4-1.5-1.4H49c-0.8,0-1.4,0.6-1.4,1.4
				C47.6,32.2,48.2,32.9,49,32.9z"/>
		</g>
		<g>
			<path class="st2" d="M73.6,43c0,0.8,0.6,1.5,1.5,1.5H101c0.8,0,1.5-0.7,1.5-1.5c0-0.8-0.6-1.5-1.5-1.5H75
				C74.2,41.5,73.6,42.2,73.6,43z"/>
		</g>
		<g>
			<path class="st2" d="M49,44.4h17.3c0.8,0,1.4-0.7,1.4-1.5c0-0.8-0.6-1.5-1.4-1.5H49c-0.8,0-1.4,0.6-1.4,1.5
				C47.6,43.8,48.2,44.4,49,44.4z"/>
		</g>
		<g>
			<path class="st2" d="M101,53.1H86.5c-0.8,0-1.5,0.6-1.5,1.4c0,0.8,0.6,1.5,1.5,1.5H101c0.8,0,1.5-0.6,1.5-1.5
				C102.4,53.7,101.8,53.1,101,53.1z"/>
		</g>
		<g>
			<path class="st2" d="M49,56h28.9c0.8,0,1.5-0.6,1.5-1.5c0-0.8-0.7-1.4-1.5-1.4H49c-0.8,0-1.4,0.6-1.4,1.4
				C47.6,55.3,48.2,56,49,56z"/>
		</g>
		<g>
			<path class="st2" d="M73.6,66.1c0,0.8,0.6,1.5,1.5,1.5h20.2c0.8,0,1.4-0.6,1.4-1.5c0-0.8-0.6-1.5-1.4-1.5H75
				C74.2,64.6,73.6,65.3,73.6,66.1z"/>
		</g>
		<g>
			<path class="st2" d="M49,67.5h17.3c0.8,0,1.4-0.6,1.4-1.5c0-0.8-0.6-1.5-1.4-1.5H49c-0.8,0-1.4,0.6-1.4,1.5
				C47.6,66.9,48.2,67.5,49,67.5z"/>
		</g>
		<g>
			<path class="st2" d="M49,79h10.1c0.8,0,1.5-0.6,1.5-1.5c0-0.8-0.6-1.4-1.5-1.4H49c-0.8,0-1.4,0.6-1.4,1.4
				C47.6,78.4,48.2,79,49,79z"/>
		</g>
		<g>
			<path class="st2" d="M101,76.2H67.8c-0.8,0-1.5,0.6-1.5,1.4c0,0.8,0.7,1.5,1.5,1.5H101c0.8,0,1.5-0.6,1.5-1.5
				C102.4,76.8,101.8,76.2,101,76.2z"/>
		</g>
		<g>
			<path class="st2" d="M79.3,87.7H49c-0.8,0-1.4,0.7-1.4,1.5c0,0.8,0.6,1.5,1.4,1.5h30.3c0.8,0,1.4-0.6,1.4-1.5
				C80.8,88.4,80.1,87.7,79.3,87.7z"/>
		</g>
	</g>
</g>
</svg>
